<?xml version="1.0" standalone="no"?>
<!DOCTYPE svg PUBLIC "-//W3C//DTD SVG 20010904//EN"
 "http://www.w3.org/TR/2001/REC-SVG-20010904/DTD/svg10.dtd">
<svg version="1.0" xmlns="http://www.w3.org/2000/svg"
 width="935.000000pt" height="1600.000000pt" viewBox="0 0 935.000000 1600.000000"
 preserveAspectRatio="xMidYMid meet">

<g transform="translate(0.000000,1600.000000) scale(0.100000,-0.100000)"
fill="#000000" stroke="none">
<path d="M4630 15848 c0 -188 6 -228 32 -228 10 0 36 11 58 25 28 18 54 25 88
25 36 0 59 -7 86 -25 l37 -25 2012 0 c1552 0 2016 -3 2025 -12 14 -14 17
-5718 5 -11805 l-6 -3623 -2015 0 -2014 0 -29 -25 c-62 -52 -150 -52 -199 0
-14 15 -34 25 -52 25 -25 0 -28 3 -28 35 0 32 3 35 28 35 15 0 40 11 56 25 53
45 138 45 188 -2 l26 -25 1564 6 c859 3 1574 5 1588 5 14 0 140 -1 280 0 288
0 360 5 360 27 0 8 -6 14 -12 14 -9 0 -8 4 2 10 10 6 11 10 3 10 -7 0 -13 6
-13 14 0 7 -7 27 -15 42 -8 16 -15 50 -15 75 0 33 -6 51 -20 64 -12 10 -20 31
-20 49 -1 43 -31 76 -69 76 -29 0 -31 2 -31 39 0 22 -4 41 -9 43 -4 2 -11 25
-13 51 -5 44 -4 49 18 58 14 5 28 17 31 26 4 10 13 24 20 31 7 7 13 22 13 33
0 10 7 19 15 19 9 0 18 6 21 14 3 8 24 27 47 43 23 15 44 30 47 33 3 3 40 23
83 45 43 21 83 47 88 57 6 10 8 641 7 1635 l-3 1618 -38 105 c-21 58 -58 145
-83 194 -25 49 -43 91 -40 93 3 3 38 -8 78 -25 l73 -31 5 277 c8 431 3 5361
-5 5507 -8 141 -17 165 -64 165 -15 0 -35 -10 -46 -22 -20 -23 -22 -45 -14
-153 3 -43 -1 -58 -30 -105 -34 -54 -34 -57 -38 -190 -2 -74 -4 -172 -3 -217
0 -58 -4 -90 -15 -106 -10 -17 -12 -31 -6 -53 10 -34 3 -93 -12 -113 -6 -7
-13 -70 -15 -140 -3 -69 -8 -128 -12 -131 -4 -3 -11 -39 -14 -80 -4 -41 -11
-120 -16 -175 -12 -117 -12 -122 -4 -241 4 -63 2 -99 -6 -114 -7 -13 -16 -88
-21 -167 -4 -79 -11 -148 -15 -154 -3 -6 -7 -71 -8 -144 -2 -81 -7 -139 -14
-148 -6 -7 -9 -23 -5 -35 4 -16 1 -22 -12 -22 -16 0 -17 -7 -13 -57 3 -32 3
-50 1 -40 -3 9 -14 17 -25 17 -18 0 -20 -5 -17 -44 2 -24 1 -42 -3 -40 -10 7
-20 -34 -13 -56 4 -11 11 -18 16 -15 5 4 9 -4 10 -17 0 -22 1 -22 9 -3 7 16 9
17 9 3 1 -9 -3 -20 -9 -23 -5 -3 -10 -17 -10 -30 0 -13 -5 -27 -11 -30 -6 -4
-10 -40 -9 -88 1 -45 -1 -93 -4 -107 -3 -14 -8 -41 -10 -60 -3 -19 -10 -64
-15 -100 -22 -141 -22 -140 -9 -138 7 2 13 -4 13 -12 0 -8 -5 -14 -11 -13 -15
3 -21 -35 -30 -172 -4 -60 -10 -115 -15 -120 -8 -11 -5 -121 6 -227 4 -38 2
-80 -4 -104 -6 -22 -13 -82 -16 -132 -5 -102 -19 -168 -41 -189 -16 -17 -18
-64 -4 -113 8 -26 7 -50 -4 -95 -27 -111 -35 -169 -41 -285 -3 -63 -11 -133
-16 -155 -16 -59 -47 -125 -63 -131 -31 -12 -276 118 -340 182 -48 47 -183 93
-274 94 -24 0 -89 15 -145 34 -183 60 -387 116 -522 141 -49 10 -160 35 -245
56 -85 21 -210 50 -278 63 -67 14 -169 37 -225 50 -94 23 -137 31 -362 71 -99
17 -228 32 -365 41 -93 6 -110 10 -147 36 -50 34 -73 64 -73 95 0 31 31 93 47
93 7 0 25 19 39 43 15 23 40 57 55 75 16 18 29 40 29 50 0 9 7 26 15 36 8 11
15 32 15 47 0 32 53 137 80 161 23 19 59 94 60 123 0 20 17 51 77 140 18 26
44 80 59 119 15 39 43 100 62 136 54 103 112 282 154 480 17 79 27 263 18 325
-16 106 -22 135 -32 141 -16 10 -19 -2 -8 -31 8 -21 7 -32 -3 -44 -13 -15 -29
-102 -30 -163 0 -15 -4 -25 -8 -22 -5 3 -9 -8 -9 -24 0 -36 -25 -61 -42 -44
-20 20 -27 14 -30 -25 -2 -29 -8 -39 -23 -41 -11 -2 -33 -8 -48 -14 l-28 -11
23 -25 c21 -23 21 -25 3 -17 -53 20 -58 19 -52 -6 5 -18 1 -28 -13 -37 -11 -7
-20 -18 -20 -26 0 -21 -34 -46 -63 -46 -23 0 -27 -4 -27 -29 0 -16 -6 -31 -13
-34 -7 -2 -14 -18 -15 -33 -1 -16 -11 -36 -21 -44 -11 -8 -23 -35 -28 -60 -6
-30 -14 -46 -26 -48 -10 -2 -17 3 -17 11 0 8 -6 17 -14 20 -17 7 -56 86 -56
115 0 12 9 30 20 40 13 12 20 31 20 58 1 263 0 284 -18 284 -8 0 -44 29 -79
65 -35 36 -72 65 -82 65 -10 0 -26 9 -36 20 -10 11 -26 20 -36 20 -10 0 -25
13 -35 29 -9 15 -30 36 -45 45 -16 10 -29 23 -29 30 0 8 -14 19 -30 26 -30 12
-39 45 -13 45 27 0 20 13 -17 34 l-41 23 43 38 43 39 -27 27 c-21 21 -38 28
-80 31 -48 4 -59 1 -123 -38 -38 -23 -73 -47 -78 -53 -5 -7 -11 -6 -17 6 -7
11 -30 19 -68 23 -98 11 -164 27 -247 62 -48 20 -96 33 -123 33 -47 0 -141
-26 -157 -44 -11 -12 -93 -21 -192 -20 -52 0 -67 4 -88 24 -14 13 -25 29 -25
35 0 16 -45 57 -53 48 -18 -18 -5 -71 32 -123 21 -30 44 -73 51 -95 7 -22 17
-45 22 -52 5 -6 13 -25 18 -41 8 -29 6 -31 -18 -34 -19 -2 -27 -9 -28 -23 -1
-11 -2 -36 -3 -56 -1 -35 -3 -37 -43 -42 -23 -3 -48 -13 -54 -22 -7 -10 -18
-14 -24 -10 -13 8 -30 -11 -30 -32 0 -7 7 -13 15 -13 19 0 19 -16 0 -23 -8 -4
-22 4 -34 18 -10 14 -29 25 -41 25 -16 0 -20 4 -16 15 3 8 1 15 -3 15 -5 0
-12 -7 -15 -16 -3 -8 -26 -24 -51 -35 -39 -17 -45 -23 -39 -42 3 -12 3 -19 -1
-15 -4 4 -25 -2 -47 -13 l-40 -20 7 20 c8 26 -7 27 -26 4 -14 -18 -21 -29 -61
-102 -11 -20 -24 -40 -29 -45 -17 -18 -9 -28 16 -24 18 4 23 2 16 -6 -13 -15
0 -67 53 -211 14 -41 39 -65 53 -52 4 4 10 28 13 54 4 39 10 48 42 66 36 22
36 22 75 2 56 -29 57 -29 51 -13 -3 7 0 22 8 32 12 18 16 17 86 -17 40 -19 84
-38 98 -42 13 -4 30 -14 38 -21 7 -8 20 -14 27 -14 7 0 22 -10 32 -22 21 -25
99 -68 124 -68 9 0 34 -8 55 -17 66 -29 384 -49 549 -34 171 15 194 20 253 47
29 13 56 24 61 24 4 0 16 9 26 20 10 11 24 20 30 20 12 0 63 67 76 99 3 8 27
20 54 27 40 10 55 9 79 -1 17 -8 38 -16 47 -19 14 -4 31 -41 81 -178 6 -16 18
-28 27 -28 27 -1 65 -26 52 -35 -7 -4 -21 1 -32 11 -14 13 -22 15 -31 6 -13
-13 12 -84 32 -90 9 -3 11 1 7 11 -6 15 20 33 31 22 3 -3 0 -5 -6 -5 -16 0
-15 -33 0 -48 8 -8 9 -12 1 -12 -6 0 -13 6 -16 13 -3 9 -8 9 -16 1 -10 -9 -9
-15 3 -27 22 -21 20 -34 -5 -40 -20 -5 -20 -6 -3 -32 l18 -27 -42 7 c-39 6
-42 5 -48 -22 -4 -15 -11 -34 -17 -41 -5 -7 -11 -43 -13 -80 -3 -45 -9 -71
-19 -78 -8 -6 -15 -19 -15 -28 0 -10 -7 -39 -16 -67 -14 -40 -20 -49 -40 -49
-19 0 -24 -5 -24 -26 0 -21 -4 -24 -20 -19 -11 3 -25 3 -32 -2 -28 -17 -77
-10 -100 14 -27 29 -58 31 -58 3 0 -23 -4 -24 -29 -8 -27 17 -54 3 -46 -24 5
-21 4 -20 -15 5 -26 32 -34 33 -62 7 -18 -17 -24 -18 -37 -6 -9 7 -29 16 -44
20 -27 6 -28 5 -26 -21 2 -15 0 -33 -4 -40 -4 -6 -3 -14 3 -18 5 -3 10 -13 10
-22 0 -11 -6 -14 -22 -8 -13 3 -36 10 -53 15 -16 5 -40 12 -52 15 -18 6 -22 3
-25 -22 -6 -53 -78 -28 -78 29 0 18 -5 28 -15 28 -9 0 -15 -9 -15 -24 0 -44
-19 -38 -42 13 -12 28 -25 48 -30 45 -5 -3 -6 -14 -3 -23 3 -10 3 -26 -1 -34
-5 -15 -8 -15 -23 3 -9 10 -28 22 -43 26 -24 5 -28 2 -37 -28 -5 -18 -10 -27
-10 -20 -2 28 -21 9 -31 -30 -6 -24 -15 -52 -20 -63 -8 -19 -9 -19 -9 4 -1 25
-40 101 -52 101 -4 0 -5 9 -2 20 3 11 0 20 -6 20 -6 0 -11 -15 -11 -32 0 -48
-15 -67 -29 -39 -7 12 -17 19 -22 15 -14 -9 -49 25 -49 48 0 11 -5 16 -11 13
-6 -4 -8 -13 -5 -21 3 -8 3 -21 0 -29 -5 -11 -10 -12 -26 -4 -15 8 -24 7 -37
-5 -28 -26 -68 -20 -85 12 l-15 27 -1 -42 c0 -49 -4 -52 -47 -46 -30 5 -32 8
-26 31 6 26 6 26 -17 11 -19 -12 -33 -14 -71 -6 l-48 9 -7 54 c-6 48 -9 54
-30 54 -12 0 -26 5 -29 10 -3 6 -17 10 -30 10 -22 0 -23 3 -15 24 8 22 5 26
-21 35 -17 6 -28 15 -24 20 3 6 12 8 20 4 8 -3 15 -1 15 4 0 11 -50 37 -66 35
-13 -3 -24 30 -24 74 0 44 -13 50 -25 13 -16 -46 -37 -57 -69 -35 -22 14 -24
20 -16 36 16 31 12 41 -15 34 -17 -4 -25 -2 -25 7 0 7 -7 21 -17 31 -10 11
-12 18 -4 18 8 0 10 14 5 50 -5 41 -4 51 10 56 21 8 21 50 0 58 -9 3 -19 4
-24 1 -4 -3 -10 2 -14 10 -3 8 -1 17 4 20 13 8 13 55 0 55 -5 0 -10 9 -10 21
0 12 -8 23 -19 26 -11 3 -17 11 -15 17 3 7 -2 19 -11 26 -8 7 -15 20 -15 29 0
22 -19 41 -42 41 -12 0 -18 8 -18 23 0 33 -10 40 -32 20 -17 -15 -20 -15 -28
-3 -7 11 -4 17 7 21 24 8 1 20 -48 24 -36 2 -69 15 -41 15 7 0 12 5 12 10 0 6
-6 10 -14 10 -7 0 -19 7 -26 15 -7 8 -20 15 -29 15 -9 0 -28 11 -41 24 l-25
24 -22 -21 -22 -20 -12 25 c-8 18 -17 24 -30 21 -10 -3 -19 -12 -19 -19 0 -27
-28 -14 -39 18 -9 24 -14 29 -23 20 -17 -17 -38 -15 -38 3 0 8 -18 24 -40 35
-22 11 -40 25 -40 31 0 6 -9 9 -20 6 -11 -3 -20 -1 -20 4 0 5 -9 9 -19 9 -23
0 -31 18 -21 45 9 24 -6 45 -31 45 -11 0 -19 6 -19 13 0 37 -74 64 -86 32 -8
-20 -24 -19 -24 0 0 9 7 18 15 21 27 11 17 41 -15 48 -27 5 -30 9 -25 33 l6
28 -16 -28 c-9 -15 -20 -25 -25 -22 -19 12 -9 43 22 69 l32 26 -31 0 c-22 0
-38 -8 -51 -25 l-20 -25 -5 22 c-4 13 -1 26 6 30 7 4 7 8 2 8 -16 0 -33 58
-33 110 0 25 -8 65 -16 89 -9 24 -16 71 -16 105 -1 33 -7 106 -15 161 -23 152
-23 153 -29 575 -6 390 -6 395 12 371 l20 -24 11 21 c6 11 11 36 11 56 0 25 7
40 25 54 15 12 25 30 25 45 0 14 4 28 9 32 5 3 13 20 16 38 11 48 41 86 64 80
16 -4 23 3 36 33 9 22 14 53 12 69 -2 17 0 40 6 52 l10 22 17 -21 c16 -20 17
-20 43 -4 18 13 27 28 29 53 l3 35 25 -22 c13 -11 32 -19 42 -17 25 7 23 -19
-3 -37 -16 -11 -19 -20 -14 -33 5 -10 7 -26 6 -35 -1 -10 3 -18 8 -18 19 0 12
-27 -11 -42 -20 -13 -21 -18 -9 -32 11 -13 11 -20 -3 -41 -9 -14 -23 -25 -31
-25 -10 0 -15 -10 -15 -30 0 -16 -5 -30 -10 -30 -7 0 -8 -13 -4 -35 6 -34 -10
-65 -35 -65 -6 0 -11 -9 -11 -20 0 -14 7 -20 24 -20 37 0 61 -11 45 -21 -23
-14 -3 -20 24 -8 21 10 33 9 61 -5 19 -9 38 -21 41 -26 3 -6 16 -10 29 -10 13
0 31 -9 41 -20 18 -19 17 -20 -3 -20 -37 0 -24 -17 17 -24 22 -3 41 -11 43
-17 2 -5 35 -11 73 -13 39 -2 79 -7 90 -11 29 -12 55 -36 55 -51 0 -45 111
-99 227 -111 40 -4 54 -10 59 -25 3 -10 11 -17 17 -15 6 2 20 -7 32 -20 18
-20 30 -23 122 -25 57 -2 103 -6 103 -10 0 -3 8 -4 19 -1 10 3 22 0 25 -6 4
-6 18 -5 41 5 19 8 43 14 54 14 15 0 19 5 14 17 -4 10 -2 14 4 10 13 -8 74 21
86 41 4 6 19 12 32 12 17 0 25 6 27 22 2 12 18 30 38 41 19 10 39 26 43 33 5
8 22 28 38 45 22 22 26 31 15 35 -8 3 -25 0 -38 -7 -13 -8 -55 -16 -95 -19
-58 -4 -69 -3 -60 8 13 17 70 40 126 53 39 9 47 7 67 -12 l23 -21 20 41 c12
23 29 41 38 41 24 0 103 49 103 64 0 8 10 20 21 28 18 11 22 26 26 93 5 79 20
115 48 115 14 0 8 47 -6 56 -5 3 0 18 11 34 15 21 17 29 8 33 -10 3 -10 11 -1
35 10 29 9 32 -8 32 -16 0 -19 8 -19 56 0 51 -2 56 -20 51 -11 -3 -20 -1 -20
3 0 5 -14 23 -32 40 l-32 32 -22 -26 c-15 -16 -25 -22 -30 -15 -3 6 -17 9 -30
6 -18 -3 -24 0 -24 13 0 26 -26 43 -54 36 -16 -4 -28 -1 -33 7 -9 16 -78 27
-218 33 -55 3 -101 9 -103 14 -2 5 -23 7 -48 3 -28 -4 -49 -1 -59 7 -8 7 -22
9 -32 6 -9 -4 -20 -1 -24 5 -7 11 -99 2 -157 -16 -17 -6 -22 -4 -20 6 2 11
-11 13 -63 11 -41 -3 -69 0 -73 7 -5 7 -14 8 -24 2 -9 -5 -38 -12 -65 -15 -38
-6 -48 -4 -53 8 -8 20 -30 21 -38 1 -3 -9 -23 -23 -43 -31 -21 -8 -52 -22 -69
-31 -25 -13 -37 -14 -62 -5 -20 7 -34 7 -37 1 -9 -14 -25 -1 -19 15 3 8 26 19
50 26 25 7 51 18 58 24 20 18 55 36 70 36 8 0 19 6 23 14 4 8 17 16 28 18 16
2 19 -2 18 -19 -4 -30 5 -29 17 2 7 19 17 25 41 25 20 0 37 8 49 23 18 21 23
22 179 20 97 -2 162 1 166 7 3 6 26 10 50 10 24 0 56 5 72 12 25 10 26 12 8
16 -33 7 -42 22 -18 28 12 3 24 13 26 23 3 11 5 9 6 -6 1 -16 7 -23 20 -23 11
0 21 -5 23 -12 3 -7 12 -9 24 -4 18 7 17 8 -6 21 l-25 14 28 1 c35 0 35 15 0
34 l-28 15 35 1 c20 0 44 6 55 14 31 20 73 28 78 13 8 -22 19 2 13 28 -4 16
-11 23 -18 19 -6 -4 -8 -3 -4 4 4 7 17 8 36 2 19 -6 49 -3 87 7 32 8 74 16 94
18 20 2 46 8 57 14 28 15 31 14 25 -10 -5 -20 -4 -20 18 -9 13 7 27 18 31 24
5 8 13 7 28 -2 15 -9 26 -10 40 -2 10 5 32 10 47 10 16 0 38 7 49 15 10 8 37
15 58 15 22 0 47 7 58 17 17 15 18 15 18 0 0 -10 5 -17 10 -17 6 0 10 7 10 16
0 14 7 15 45 10 36 -6 46 -4 51 8 3 9 17 16 31 16 16 0 27 7 30 20 6 21 54 50
85 50 15 0 18 5 13 20 -5 16 -2 20 19 20 15 0 35 -6 46 -12 16 -10 24 -10 39
-1 15 9 20 10 24 0 6 -20 83 4 79 26 -2 9 3 18 10 18 7 1 20 3 28 4 8 1 21 3
29 4 8 0 11 9 8 20 -4 17 2 18 82 17 47 -1 76 0 64 2 -12 2 -27 10 -34 18 -16
19 0 31 51 39 19 4 43 11 54 16 10 6 53 22 95 35 42 14 82 33 89 42 12 15 13
14 7 -9 -8 -33 14 -52 49 -43 14 3 26 11 26 18 0 6 5 3 11 -8 9 -14 8 -20 -2
-27 -9 -6 2 -9 31 -9 40 -1 47 -5 66 -35 12 -18 25 -52 29 -74 4 -23 10 -41
13 -41 12 0 33 -57 27 -72 -4 -9 0 -22 8 -30 14 -13 21 -49 33 -157 3 -30 12
-61 20 -69 9 -8 13 -21 10 -28 -3 -8 5 -24 17 -37 39 -42 57 -67 57 -82 0 -8
6 -18 13 -22 8 -4 22 -21 33 -38 10 -16 27 -38 36 -49 9 -10 24 -44 34 -75 9
-31 20 -69 25 -85 11 -34 11 -113 0 -140 -8 -22 -15 -15 -25 27 -7 31 -75 122
-109 148 -27 20 -113 69 -122 69 -4 0 -5 -6 -2 -14 5 -12 -4 -13 -47 -9 -33 3
-56 1 -60 -5 -4 -7 -15 -8 -29 -3 -77 29 -94 31 -123 16 -22 -12 -57 -15 -139
-14 -60 1 -144 -3 -185 -9 -68 -11 -114 -17 -191 -25 -14 -2 -37 -14 -50 -28
-13 -14 -37 -34 -52 -44 -18 -12 -24 -21 -17 -25 8 -5 7 -9 -4 -13 -9 -4 -16
-14 -16 -23 0 -14 -19 -42 -73 -105 -8 -9 -13 -30 -10 -50 2 -19 5 -97 6 -174
2 -118 6 -147 24 -187 21 -46 80 -128 92 -128 3 0 15 12 25 27 11 14 14 23 8
19 -8 -5 -10 -2 -6 9 6 14 9 14 29 1 13 -8 56 -16 106 -19 46 -2 102 -7 124
-11 22 -3 51 -7 65 -9 50 -6 100 -19 100 -27 0 -4 -21 -15 -47 -23 -40 -13
-50 -14 -63 -3 -8 7 -33 16 -55 19 -22 4 -62 11 -89 17 -54 11 -83 0 -48 -19
11 -6 27 -17 34 -25 30 -29 187 -95 286 -119 101 -25 105 -25 205 -11 106 15
155 37 149 68 -2 9 2 15 8 14 14 -3 23 11 45 66 12 30 19 37 32 31 10 -4 37
-10 61 -12 34 -5 42 -3 42 10 0 10 13 20 33 25 22 6 33 15 35 30 5 33 30 26
41 -10 6 -23 9 34 10 192 l1 225 59 62 c33 35 65 79 71 100 7 21 21 54 31 73
29 57 60 246 63 390 1 19 9 47 19 62 17 25 17 28 2 52 -22 33 -13 82 13 71 31
-13 56 -10 60 7 2 9 -3 18 -10 20 -22 5 -110 106 -103 117 3 6 15 11 26 11 25
0 24 14 -3 40 -12 11 -18 21 -12 22 5 0 20 2 34 4 66 7 116 18 129 27 14 12
81 113 81 124 0 11 -40 -30 -40 -41 -1 -17 -47 -66 -63 -66 -10 0 -17 14 -20
38 -4 33 0 41 37 75 22 20 53 40 68 43 31 7 53 35 60 79 3 17 15 56 27 89 28
74 21 178 -14 230 -12 18 -25 39 -29 47 -3 8 -4 4 -2 -8 8 -44 -23 -21 -53 40
-9 18 -41 49 -74 71 -61 40 -198 189 -234 253 -11 21 -36 65 -54 97 -18 33
-65 93 -104 133 -104 106 -155 169 -155 192 0 19 -21 77 -41 111 -5 8 -18 35
-29 60 -36 78 -41 85 -70 117 -20 21 -26 33 -17 37 8 3 4 11 -11 23 -13 10
-37 30 -55 46 -17 15 -36 27 -42 27 -18 1 -78 34 -151 83 -39 26 -74 47 -78
47 -4 0 -31 11 -61 25 -33 16 -86 29 -141 36 -49 6 -104 15 -122 21 -24 7 -37
7 -45 -1 -6 -6 -21 -11 -33 -11 -12 0 -27 -7 -34 -15 -19 -23 -71 -18 -115 12
-40 28 -51 30 -247 49 -39 4 -85 2 -111 -4 -79 -20 -225 -17 -285 7 -63 25
-72 26 -72 5 0 -13 -7 -15 -32 -10 -18 4 -68 9 -111 13 -71 5 -81 4 -109 -17
-29 -21 -38 -22 -129 -17 -55 3 -101 1 -105 -4 -7 -12 -54 -12 -54 0 0 22
-321 34 -342 13 -10 -10 -3 -11 32 -6 25 3 74 -1 110 -9 l65 -14 -100 -7
c-133 -9 -159 -16 -163 -44 -4 -25 -24 -29 -42 -7 -16 19 -22 19 -46 -3 -61
-56 -118 -94 -184 -126 -41 -19 -86 -44 -100 -55 -14 -10 -63 -44 -110 -76
-47 -31 -128 -94 -180 -141 -73 -65 -121 -97 -207 -140 -62 -31 -113 -60 -113
-64 0 -4 9 -10 20 -13 39 -10 16 -81 -49 -149 -14 -15 -36 -39 -49 -54 -22
-24 -24 -25 -47 -10 -33 22 -35 21 -35 -18 0 -22 -9 -45 -26 -65 -30 -36 -49
-39 -57 -11 -7 29 -26 25 -33 -7 -4 -16 -9 -31 -11 -35 -6 -12 -43 25 -43 43
0 23 -11 30 -28 17 -20 -18 -39 12 -53 84 -12 58 -31 74 -37 29 -3 -16 -8 -20
-22 -16 -21 7 -40 -20 -40 -54 0 -12 -6 -21 -14 -21 -37 0 -34 -88 6 -170 51
-104 50 -96 9 -92 -40 5 -42 10 23 -61 30 -32 32 -43 10 -51 -8 -3 -12 -10 -9
-16 16 -26 -70 -199 -120 -240 -8 -7 -15 -17 -15 -24 0 -6 -9 -33 -19 -61 -11
-27 -29 -101 -41 -164 -11 -63 -28 -127 -36 -142 -20 -40 -18 -50 14 -47 l27
3 3 -110 c3 -131 19 -184 71 -248 58 -70 84 -115 93 -164 29 -155 44 -200 69
-208 24 -8 78 -122 86 -185 4 -29 15 -53 30 -67 12 -12 23 -31 23 -43 0 -12
23 -89 51 -172 45 -134 49 -153 35 -162 -8 -6 -33 -22 -55 -35 -22 -14 -46
-38 -53 -55 -18 -43 -13 -251 6 -291 8 -16 25 -63 37 -103 24 -76 35 -88 45
-47 3 14 19 33 35 42 16 10 32 25 35 35 9 30 43 42 64 23 23 -21 44 -97 36
-129 -12 -48 53 -156 94 -156 34 0 52 -42 50 -117 -1 -37 4 -173 11 -302 13
-225 12 -234 -6 -247 -22 -16 -85 -18 -133 -5 -39 12 -42 -2 -5 -26 17 -12 54
-20 102 -23 l76 -5 7 -75 c13 -136 30 -233 65 -369 19 -74 37 -139 40 -144 4
-6 10 -27 14 -46 13 -58 45 -140 62 -159 10 -10 17 -33 17 -50 0 -24 5 -33 23
-37 13 -4 29 -22 40 -45 10 -21 34 -56 53 -77 38 -41 70 -96 75 -128 8 -54
-27 -349 -51 -440 -27 -99 -29 -114 -21 -161 5 -27 12 -58 16 -68 7 -16 5 -18
-8 -13 -22 8 -11 -20 21 -55 14 -16 20 -28 14 -28 -7 0 -12 -16 -12 -40 0 -29
-4 -40 -15 -40 -8 0 -15 -7 -15 -15 0 -9 9 -15 25 -15 20 0 25 -5 25 -25 0
-16 6 -25 15 -25 21 0 21 -68 -1 -77 -9 -3 -27 -17 -41 -31 -36 -35 -38 -115
-5 -153 12 -14 29 -34 37 -45 14 -18 14 -17 15 11 0 23 3 27 10 15 14 -22 70
39 70 77 0 60 9 73 51 73 28 0 39 -4 39 -15 0 -8 7 -15 16 -15 9 0 24 -10 33
-21 9 -12 30 -23 45 -24 35 -4 45 -18 38 -52 -4 -23 -2 -25 18 -20 40 10 62
-9 54 -47 -6 -36 8 -55 29 -38 24 19 83 23 97 7 8 -10 9 -15 1 -15 -6 0 -11
-6 -11 -13 0 -8 -18 -22 -40 -32 -29 -13 -40 -24 -40 -40 0 -13 -8 -26 -17
-29 -36 -13 -82 -42 -101 -62 -17 -18 -18 -23 -6 -45 20 -36 17 -45 -8 -23
-13 11 -36 28 -51 38 -29 18 -66 48 -99 79 -10 9 -20 17 -23 17 -4 0 -73 71
-120 124 -14 16 -25 37 -25 48 0 10 -10 22 -24 28 -14 5 -30 19 -36 30 -6 12
-28 38 -48 58 -55 55 -123 194 -129 262 -5 50 -3 59 22 88 l27 32 -24 0 c-31
0 -69 -27 -126 -88 -43 -47 -53 -53 -117 -66 -142 -30 -202 -45 -270 -70 -38
-14 -119 -32 -180 -41 -179 -26 -293 -54 -367 -90 -29 -14 -55 -25 -60 -25 -4
0 -32 -11 -61 -25 -52 -26 -405 -167 -547 -220 -41 -15 -88 -34 -105 -41 -26
-11 -31 -11 -37 4 -4 9 -7 2207 -7 4885 l-1 4867 1990 0 c1983 0 1991 0 2012
-20 38 -35 94 -44 145 -25 25 10 47 23 50 31 3 8 19 14 38 14 39 0 52 14 51
55 -1 25 -6 30 -41 40 -22 5 -51 18 -65 28 -39 27 -128 23 -170 -8 l-34 -25
-2018 0 c-1918 0 -2018 -1 -2027 -18 -6 -11 -9 -1895 -9 -5012 -1 -2747 -3
-5535 -6 -6195 -3 -660 -5 -1701 -6 -2312 0 -1079 -1 -1113 -19 -1113 -16 0
-20 -11 -26 -76 -5 -54 -13 -83 -26 -97 -16 -18 -19 -18 -19 -4 0 13 -9 17
-40 17 -40 0 -40 0 -40 -39 0 -22 5 -41 13 -44 7 -2 8 -8 3 -13 -5 -5 -11 -4
-13 4 -3 6 -13 12 -23 12 -26 0 -39 140 -16 175 9 14 21 25 26 25 24 0 7 49
-30 85 l-40 39 0 -522 0 -522 119 0 c116 0 120 1 123 23 l3 22 23 -23 22 -22
4530 0 4530 0 0 8000 0 8000 -2360 0 -2360 0 0 -152z m830 -3124 c44 -53 66
-91 75 -127 18 -70 3 -81 -30 -21 -14 27 -41 70 -59 96 -33 46 -74 144 -56
133 5 -3 37 -40 70 -81z m-3940 -880 c0 -8 -6 -11 -15 -8 -8 4 -15 12 -15 20
0 8 6 11 15 8 8 -4 15 -12 15 -20z m3253 -801 c-7 -2 -19 -2 -25 0 -7 3 -2 5
12 5 14 0 19 -2 13 -5z m1299 -175 c-9 -9 -15 -9 -24 0 -9 9 -7 12 12 12 19 0
21 -3 12 -12z m-2415 -64 c-3 -3 -12 -4 -19 -1 -8 3 -5 6 6 6 11 1 17 -2 13
-5z m-1022 -424 c4 -7 12 -7 25 0 24 13 33 13 25 0 -9 -14 -81 -50 -100 -50
-21 0 -30 27 -15 45 14 17 56 20 65 5z m-98 -55 c9 -10 23 -13 37 -9 13 3 7
-4 -16 -20 -43 -30 -53 -32 -44 -10 5 13 2 15 -13 11 -11 -3 -28 1 -38 9 -16
12 -15 13 15 14 17 0 32 5 32 10 0 14 9 12 27 -5z m-97 -14 c0 -5 -9 -7 -20
-4 -11 3 -20 7 -20 9 0 2 9 4 20 4 11 0 20 -4 20 -9z m753 -177 c17 -3 48 -8
67 -10 47 -7 100 -24 100 -33 0 -4 -89 -14 -197 -23 -162 -13 -199 -13 -210
-2 -9 9 -10 15 -2 19 6 4 8 13 5 21 -3 8 0 11 10 7 8 -3 14 1 14 10 0 23 116
29 213 11z m176 -118 c9 -11 9 -15 -1 -20 -7 -3 2 -3 20 0 33 6 41 -3 21 -23
-8 -8 -1 -14 27 -22 22 -6 49 -11 62 -11 12 0 22 -6 22 -14 0 -8 6 -16 13 -19
6 -2 9 -8 5 -12 -5 -5 -17 0 -28 10 -16 15 -25 16 -43 7 -12 -6 -71 -13 -132
-15 -60 -3 -140 -11 -178 -18 -52 -10 -70 -10 -79 -1 -9 9 -9 15 0 24 17 17
15 40 -2 36 -8 -2 -15 2 -15 7 -1 6 3 10 8 10 19 0 24 15 5 16 -32 0 78 41
126 45 24 3 46 7 49 9 11 12 109 4 120 -9z m2064 7 c-7 -2 -19 -2 -25 0 -7 3
-2 5 12 5 14 0 19 -2 13 -5z m-58 -47 c87 -23 126 -46 156 -95 21 -32 26 -48
18 -55 -7 -8 -13 -6 -20 7 -8 13 -24 17 -75 17 -36 0 -77 6 -92 14 -36 18
-118 29 -219 28 -46 0 -83 1 -83 3 0 9 69 44 100 50 19 4 39 14 45 21 9 11 36
18 100 22 11 1 43 -4 70 -12z m-2345 -106 c-19 -12 -30 -12 -30 -1 0 10 31 20
40 14 2 -2 -2 -8 -10 -13z m2100 -74 c0 -3 -4 -8 -10 -11 -5 -3 -10 -1 -10 4
0 6 5 11 10 11 6 0 10 -2 10 -4z m222 -39 c7 -7 22 -17 33 -21 13 -5 16 -10 7
-13 -6 -3 -10 -9 -7 -13 3 -5 12 -7 19 -4 7 3 19 -2 26 -11 11 -13 9 -20 -11
-42 -13 -14 -37 -31 -54 -38 -36 -15 -145 -30 -145 -20 0 4 13 24 29 44 15 20
34 54 41 76 17 54 37 67 62 42z m-1782 -12 c7 -8 18 -15 25 -15 15 0 39 -45
31 -58 -7 -12 -166 -56 -173 -48 -3 3 6 19 20 36 14 16 31 46 38 65 14 37 38
46 59 20z m346 -62 c-10 -10 -19 5 -10 18 6 11 8 11 12 0 2 -7 1 -15 -2 -18z
m-2110 -42 c25 -22 31 -35 27 -55 -7 -33 -16 -33 -59 1 -45 34 -61 62 -43 74
24 15 43 10 75 -20z m1712 -57 l23 -7 -21 -14 c-18 -13 -26 -13 -52 -2 -27 11
-29 14 -12 20 24 10 34 10 62 3z m-228 -14 c-16 -10 -16 -11 24 -28 38 -17 21
-37 -23 -27 -23 5 -31 12 -31 29 0 27 8 36 29 36 14 0 14 -2 1 -10z m355 0 c3
-5 1 -10 -4 -10 -6 0 -11 5 -11 10 0 6 2 10 4 10 3 0 8 -4 11 -10z m-415 -50
c12 -8 11 -10 -7 -10 -13 0 -23 5 -23 10 0 13 11 13 30 0z m1940 -20 c0 -5 -7
-10 -15 -10 -8 0 -15 5 -15 10 0 6 7 10 15 10 8 0 15 -4 15 -10z m-2930 -1315
c0 -8 -4 -15 -10 -15 -5 0 -10 7 -10 15 0 8 5 15 10 15 6 0 10 -7 10 -15z
m1955 -15 c3 -5 28 -10 55 -10 67 0 170 -55 170 -90 0 -8 -10 -10 -32 -6 -85
17 -156 25 -185 20 -17 -3 -47 -7 -65 -9 -77 -7 -235 -34 -261 -44 -34 -13
-97 -15 -97 -2 0 5 7 11 15 15 8 3 15 14 15 24 0 27 10 33 33 20 16 -8 22 -8
25 1 3 9 7 9 17 1 10 -8 19 -8 35 0 11 6 25 8 30 5 6 -3 10 2 10 13 0 28 10
33 35 16 20 -13 30 -13 65 -3 23 7 47 20 53 30 17 24 71 37 82 19z m393 -28
c2 -8 -8 -12 -30 -11 -18 1 -25 3 -15 6 9 2 17 9 17 15 0 13 23 5 28 -10z
m353 -28 c-30 -20 -99 -25 -136 -10 -19 8 -35 17 -35 19 0 3 42 4 94 3 71 -1
89 -4 77 -12z m-454 0 c-3 -3 -12 -4 -19 -1 -8 3 -5 6 6 6 11 1 17 -2 13 -5z
m529 -26 c13 -13 24 -26 24 -30 0 -13 -50 -9 -80 7 -30 16 -43 42 -15 32 8 -4
17 -2 20 3 10 16 25 12 51 -12z m-709 -209 c85 -9 131 -10 195 -1 45 6 170 12
276 12 208 0 212 -1 193 -52 -7 -19 -15 -25 -29 -21 -13 3 -27 -6 -45 -26 -14
-17 -30 -31 -35 -31 -5 0 -15 -7 -23 -16 -8 -10 -22 -14 -40 -10 -17 3 -32 0
-39 -9 -7 -8 -19 -15 -26 -15 -8 0 -14 -3 -14 -8 0 -16 -98 -51 -160 -58 -36
-3 -71 -11 -77 -16 -9 -7 -14 -6 -18 4 -4 9 -21 13 -58 13 -28 -1 -63 2 -77 7
-16 6 -26 6 -28 -1 -5 -14 -42 -14 -42 0 0 6 -7 8 -16 5 -22 -8 -40 4 -23 15
10 6 6 9 -13 9 -16 0 -28 5 -28 10 0 6 -4 10 -10 10 -5 0 -10 -7 -10 -15 0 -9
-9 -15 -21 -15 -16 0 -19 4 -15 17 5 11 -3 25 -22 43 -26 23 -31 25 -40 11
-10 -14 -11 -14 -6 0 5 15 -32 43 -52 38 -5 -1 -20 2 -34 8 -14 6 -33 14 -43
17 -31 10 -16 41 21 44 24 2 32 7 28 17 -5 15 18 21 99 28 46 4 79 2 232 -14z
m-462 -58 c-8 -27 -35 -27 -35 -1 0 11 7 20 16 20 9 0 12 5 8 13 -5 9 -4 9 6
1 7 -7 9 -21 5 -33z m1567 -276 c0 -5 -5 -11 -11 -13 -6 -2 -11 4 -11 13 0 9
5 15 11 13 6 -2 11 -8 11 -13z m-2172 -395 c0 -5 -5 -10 -11 -10 -5 0 -7 5 -4
10 3 6 8 10 11 10 2 0 4 -4 4 -10z m1460 -240 c0 -5 -7 -10 -16 -10 -8 0 -12
5 -9 10 3 6 10 10 16 10 5 0 9 -4 9 -10z m-2220 -600 c0 -5 -2 -10 -4 -10 -3
0 -8 5 -11 10 -3 6 -1 10 4 10 6 0 11 -4 11 -10z m210 -131 c0 -10 -6 -19 -14
-19 -8 0 -13 10 -13 24 0 17 4 23 13 19 8 -3 14 -14 14 -24z m270 -591 c0 -5
16 -8 35 -8 37 0 59 -24 45 -50 -6 -11 -2 -15 18 -17 62 -4 143 -22 164 -37
12 -9 28 -16 34 -16 14 0 63 -46 86 -81 8 -13 35 -34 59 -47 24 -12 62 -38 83
-57 37 -33 38 -35 15 -35 -14 0 -29 4 -35 8 -5 5 -43 19 -84 32 -41 13 -97 33
-125 46 -117 52 -243 115 -290 144 -27 17 -57 33 -65 37 -8 4 -39 26 -68 50
l-53 42 90 -2 c50 -1 91 -5 91 -9z m2834 -147 c-2 -3 -12 3 -22 13 -16 17 -16
18 5 5 12 -7 20 -15 17 -18z m-3841 -778 c-7 -2 -19 -2 -25 0 -7 3 -2 5 12 5
14 0 19 -2 13 -5z m-121 -245 c-9 -9 -15 -9 -24 0 -9 9 -7 12 12 12 19 0 21
-3 12 -12z m-192 -338 c0 -5 -9 -10 -20 -10 -11 0 -20 5 -20 10 0 6 9 10 20
10 11 0 20 -4 20 -10z m-60 -95 c0 -8 -4 -15 -10 -15 -5 0 -10 7 -10 15 0 8 5
15 10 15 6 0 10 -7 10 -15z m-40 -101 c0 -2 -9 -4 -21 -4 -11 0 -18 4 -14 10
5 8 35 3 35 -6z m6223 -2690 c-3 -8 0 -14 6 -14 13 0 38 -49 37 -75 -1 -22
-10 -22 -63 0 -38 16 -39 23 -17 90 15 43 18 46 30 31 7 -10 10 -24 7 -32z
m-51 -265 c-3 -28 0 -44 9 -50 21 -13 -5 -11 -36 3 -38 17 -27 88 13 88 14 0
17 -7 14 -41z m-32 -169 c0 -5 9 -10 20 -10 11 0 20 -7 20 -15 0 -8 9 -15 20
-15 13 0 20 -7 20 -20 0 -26 34 -60 60 -60 11 0 20 -6 20 -14 0 -9 15 -17 39
-21 25 -4 42 -13 44 -23 3 -12 5 -10 6 6 0 13 6 20 11 17 14 -9 12 -43 -2 -48
-10 -3 -10 -7 1 -20 12 -15 11 -17 -3 -17 -10 0 -16 -9 -16 -25 0 -22 4 -25
40 -25 33 0 40 -3 40 -20 0 -17 -7 -20 -39 -20 -22 0 -42 6 -44 13 -4 8 -14 3
-31 -15 -14 -16 -28 -28 -32 -28 -4 0 -25 19 -48 41 -22 23 -42 37 -44 30 -5
-16 -22 -14 -22 4 0 18 -45 49 -60 40 -5 -3 -11 3 -11 14 -2 30 -3 34 -13 50
-10 15 -16 127 -9 165 5 24 33 38 33 16z m-6840 -615 c-8 -10 -31 -15 -66 -15
-41 0 -54 4 -54 15 0 12 14 15 66 15 58 0 65 -2 54 -15z m-360 -15 c0 -5 -18
-10 -40 -10 -22 0 -40 5 -40 10 0 6 18 10 40 10 22 0 40 -4 40 -10z m4035 -39
c-8 -14 -32 -14 -40 -1 -3 5 0 7 8 4 8 -3 18 0 22 6 4 6 9 9 12 6 3 -2 2 -9
-2 -15z"/>
<path d="M3150 9959 c0 -5 5 -7 10 -4 6 3 10 8 10 11 0 2 -4 4 -10 4 -5 0 -10
-5 -10 -11z"/>
<path d="M7671 664 c0 -11 3 -14 6 -6 3 7 2 16 -1 19 -3 4 -6 -2 -5 -13z"/>
<path d="M8867 12852 c-5 -12 -10 -95 -12 -185 -5 -264 -16 -508 -25 -570 -6
-39 -5 -67 2 -85 6 -15 14 -60 17 -100 3 -40 11 -73 16 -75 18 -4 23 96 23
478 0 400 -7 577 -21 537z"/>
<path d="M5567 12709 c4 -13 8 -18 11 -10 2 7 -1 18 -6 23 -8 8 -9 4 -5 -13z"/>
<path d="M5590 12663 c0 -12 5 -25 10 -28 13 -8 13 15 0 35 -8 12 -10 11 -10
-7z"/>
<path d="M8832 11389 c-15 -64 -15 -199 -1 -236 6 -15 12 -68 14 -116 2 -66 7
-93 19 -105 15 -15 16 4 16 246 0 247 -1 262 -18 262 -14 0 -21 -13 -30 -51z"/>
<path d="M4925 11080 c3 -5 19 -10 36 -10 16 0 29 5 29 10 0 6 -16 10 -36 10
-21 0 -33 -4 -29 -10z"/>
<path d="M6120 10785 c0 -17 2 -18 24 -9 23 9 20 24 -4 24 -11 0 -20 -7 -20
-15z"/>
<path d="M3638 10723 c-11 -3 -18 -14 -18 -26 1 -22 1 -22 15 -3 8 11 21 23
27 28 14 8 4 9 -24 1z"/>
<path d="M2780 10445 c-20 -11 -21 -14 -7 -15 10 0 25 7 33 15 19 19 7 19 -26
0z"/>
<path d="M4670 10416 c0 -14 29 -31 38 -21 6 6 -18 35 -29 35 -5 0 -9 -6 -9
-14z"/>
<path d="M8410 10325 c-10 -12 -10 -31 0 -93 16 -100 24 -115 38 -71 15 48 18
87 8 137 -8 44 -24 53 -46 27z"/>
<path d="M2298 9923 c7 -3 16 -2 19 1 4 3 -2 6 -13 5 -11 0 -14 -3 -6 -6z"/>
<path d="M2070 9669 c0 -5 5 -7 10 -4 6 3 10 8 10 11 0 2 -4 4 -10 4 -5 0 -10
-5 -10 -11z"/>
<path d="M2121 8734 c0 -11 3 -14 6 -6 3 7 2 16 -1 19 -3 4 -6 -2 -5 -13z"/>
<path d="M3372 8317 c-12 -13 -22 -29 -22 -37 0 -8 11 1 25 20 14 19 25 35 25
37 0 7 -8 2 -28 -20z"/>
<path d="M3700 8294 c0 -8 5 -12 10 -9 6 4 8 11 5 16 -9 14 -15 11 -15 -7z"/>
<path d="M2466 8062 c-4 -7 -1 -21 7 -32 12 -17 16 -18 20 -6 7 19 -17 53 -27
38z"/>
<path d="M2577 8009 c-23 -26 -15 -36 18 -21 16 7 23 17 19 27 -8 20 -16 19
-37 -6z"/>
<path d="M3365 7629 c-4 -6 -5 -13 -2 -16 7 -7 27 6 27 18 0 12 -17 12 -25 -2z"/>
<path d="M4195 7530 c-38 -4 -63 -7 -55 -8 10 -2 9 -6 -7 -17 -12 -8 -28 -12
-37 -9 -9 3 -16 1 -16 -5 0 -6 -16 -11 -35 -11 -38 0 -44 -14 -25 -51 8 -15 7
-21 -4 -25 -24 -9 -1 -47 23 -39 20 6 90 -33 91 -51 1 -28 42 -58 81 -59 38 0
39 -1 33 -27 -5 -26 -4 -28 30 -28 20 0 36 -4 36 -10 0 -5 23 -10 50 -10 43 0
50 -3 50 -20 0 -24 15 -26 24 -4 6 15 8 15 26 -1 11 -10 20 -25 21 -34 0 -9 5
-2 10 15 7 26 16 33 50 42 23 6 48 8 55 5 8 -3 17 2 20 11 4 11 14 14 34 9 28
-5 79 21 80 40 0 5 11 23 25 41 14 18 25 38 25 44 0 7 5 12 11 12 6 0 8 7 5
16 -4 11 1 18 14 21 11 3 20 13 20 23 0 10 7 20 15 24 8 3 15 13 15 23 0 25
-72 48 -101 33 -14 -8 -30 -8 -54 0 -19 6 -43 9 -54 5 -17 -5 -37 17 -33 38 1
4 -13 7 -30 8 -191 5 -335 4 -393 -1z"/>
<path d="M4580 7120 c0 -24 15 -27 24 -4 9 22 8 24 -9 24 -8 0 -15 -9 -15 -20z"/>
<path d="M4321 7014 c0 -11 3 -14 6 -6 3 7 2 16 -1 19 -3 4 -6 -2 -5 -13z"/>
<path d="M2560 6040 c0 -29 4 -40 15 -40 11 0 15 11 15 40 0 29 -4 40 -15 40
-11 0 -15 -11 -15 -40z"/>
<path d="M2500 5898 c19 -18 20 -18 38 0 17 17 16 17 -20 17 -36 0 -36 0 -18
-17z"/>
<path d="M2738 5913 c12 -2 32 -2 45 0 12 2 2 4 -23 4 -25 0 -35 -2 -22 -4z"/>
<path d="M2800 5850 c0 -5 7 -10 16 -10 8 0 12 5 9 10 -3 6 -10 10 -16 10 -5
0 -9 -4 -9 -10z"/>
<path d="M111 1824 c0 -11 3 -14 6 -6 3 7 2 16 -1 19 -3 4 -6 -2 -5 -13z"/>
<path d="M82 1770 c0 -14 2 -19 5 -12 2 6 2 18 0 25 -3 6 -5 1 -5 -13z"/>
<path d="M30 1761 c0 -20 13 -41 21 -35 14 8 11 31 -6 38 -8 3 -15 1 -15 -3z"/>
<path d="M1 1724 c-1 -28 4 -44 13 -47 12 -5 13 0 6 21 -5 15 -11 36 -13 47
-3 11 -5 1 -6 -21z"/>
<path d="M0 1630 c0 -5 5 -10 10 -10 6 0 10 5 10 10 0 6 -4 10 -10 10 -5 0
-10 -4 -10 -10z"/>
</g>
</svg>
